<svg width="21" height="21" viewBox="0 0 21 21" fill="none" xmlns="http://www.w3.org/2000/svg">
<path d="M20.8344 19.9621L15.5491 14.6768C17.0563 12.9436 17.8316 10.6929 17.7117 8.3991C17.5917 6.10535 16.5859 3.94778 14.9062 2.38118C13.2264 0.814577 11.0041 -0.0386523 8.70755 0.00134531C6.41102 0.0413429 4.21973 0.971443 2.59558 2.59558C0.971443 4.21973 0.0413429 6.41102 0.00134531 8.70755C-0.0386523 11.0041 0.814577 13.2264 2.38118 14.9062C3.94778 16.5859 6.10535 17.5917 8.3991 17.7117C10.6929 17.8316 12.9436 17.0563 14.6768 15.5491L19.9621 20.8344C20.0791 20.9434 20.2338 21.0027 20.3937 20.9999C20.5536 20.9971 20.7061 20.9323 20.8192 20.8192C20.9323 20.7061 20.9971 20.5536 20.9999 20.3937C21.0027 20.2338 20.9434 20.0791 20.8344 19.9621ZM1.2652 8.87725C1.2652 7.37173 1.71164 5.90002 2.54806 4.64822C3.38448 3.39643 4.57333 2.42077 5.96425 1.84463C7.35517 1.26849 8.8857 1.11775 10.3623 1.41146C11.8389 1.70517 13.1952 2.43015 14.2598 3.49472C15.3244 4.55928 16.0493 5.91562 16.343 7.39222C16.6368 8.86881 16.486 10.3993 15.9099 11.7903C15.3337 13.1812 14.3581 14.37 13.1063 15.2064C11.8545 16.0429 10.3828 16.4893 8.87725 16.4893C6.85916 16.4869 4.92443 15.6841 3.49742 14.2571C2.07042 12.8301 1.26765 10.8953 1.2652 8.87725Z" fill="white"/>
</svg>
